<svg width="832" height="27" viewBox="0 0 832 27" fill="none" xmlns="http://www.w3.org/2000/svg">
<path d="M2.5 5L36.1849 18.0262C47.7888 22.5135 60.6488 22.5135 72.2526 18.0262L87.9036 11.9738C99.5075 7.48653 112.368 7.48653 123.971 11.9738L139.622 18.0262C151.226 22.5135 164.086 22.5135 175.69 18.0262L191.341 11.9738C202.945 7.48653 215.805 7.48653 227.409 11.9738L243.06 18.0262C254.664 22.5135 267.524 22.5135 279.128 18.0262L294.779 11.9738C306.383 7.48653 319.243 7.48653 330.846 11.9738L346.497 18.0262C358.101 22.5135 370.961 22.5135 382.565 18.0262L398.216 11.9738C409.82 7.48653 422.68 7.48653 434.284 11.9738L449.935 18.0262C461.539 22.5135 474.399 22.5135 486.003 18.0262L501.654 11.9738C513.258 7.48653 526.118 7.48653 537.721 11.9738L553.372 18.0262C564.976 22.5135 577.836 22.5135 589.44 18.0262L605.091 11.9738C616.695 7.48653 629.555 7.48653 641.159 11.9738L656.81 18.0262C668.414 22.5135 681.274 22.5135 692.878 18.0262L708.529 11.9738C720.133 7.48653 732.993 7.48653 744.596 11.9738L760.247 18.0262C771.851 22.5135 784.711 22.5135 796.315 18.0262L830 5" stroke="white" stroke-width="9.25217"/>
</svg>
