<svg width="716" height="815" viewBox="0 0 716 815" fill="none" xmlns="http://www.w3.org/2000/svg">
<path d="M441.579 9.19755C473.484 -8.55745 513.74 2.84183 531.6 34.6887L707.52 348.391C714.136 360.189 716.984 373.729 715.679 387.193L700.317 545.767C698.207 567.546 685.482 586.88 666.312 597.431L287.699 805.817C256.059 823.232 216.3 812.103 198.299 780.793L9.39748 452.236C3.66305 442.262 0.624186 430.967 0.579893 419.462L0.0972341 294.094C0.0042986 269.954 13.0458 247.674 34.1394 235.935L441.579 9.19755Z" fill="#F5DAA7"/>
<path d="M18.5 310.732V410.955C18.5 435.915 36.9086 457.053 61.6327 460.481L630.041 539.295C658.325 543.217 684.145 522.695 686.707 494.256L695.578 395.784C696.503 385.513 694.23 375.207 689.07 366.279L512.237 60.3022C498.53 36.5851 468.291 28.3127 444.42 41.7497L43.9737 267.161C28.2372 276.019 18.5 292.674 18.5 310.732Z" fill="#F0D29B"/>
<path d="M409.607 158.232C441.921 140.193 482.74 151.767 500.779 184.081L674.301 494.939C692.34 527.254 680.766 568.073 648.452 586.111L292.301 784.917C259.987 802.955 219.168 791.382 201.129 759.067L27.6065 448.209C9.56828 415.894 21.1416 375.075 53.4562 357.037L409.607 158.232Z" fill="#FFF7E9"/>
</svg>
