<svg width="816" height="868" viewBox="0 0 816 868" fill="none" xmlns="http://www.w3.org/2000/svg">
<path d="M518.634 33.627C550.539 15.872 590.795 27.2713 608.654 59.1181L784.575 372.821C791.191 384.619 794.038 398.159 792.734 411.623L777.372 570.197C775.262 591.976 762.537 611.309 743.367 621.86L364.753 830.247C333.113 847.661 293.355 836.532 275.354 805.223L86.4521 476.665C80.7177 466.692 77.6788 455.396 77.6345 443.892L77.1519 318.523C77.059 294.383 90.1004 272.103 111.194 260.365L518.634 33.627Z" fill="#F5DAA7"/>
<rect x="545.172" y="150" width="490.029" height="541.9" rx="67.0094" transform="rotate(60.8295 545.172 150)" fill="#FFF7E9"/>
</svg>
