<svg width="816" height="867" viewBox="0 0 816 867" fill="none" xmlns="http://www.w3.org/2000/svg">
<path d="M518.579 33.1976C550.484 15.4426 590.74 26.8418 608.6 58.6887L784.52 372.391C791.136 384.189 793.984 397.73 792.679 411.193L777.317 569.767C775.207 591.546 762.482 610.88 743.313 621.431L364.699 829.817C333.059 847.232 293.3 836.103 275.299 804.793L86.3976 476.236C80.6631 466.262 77.6243 454.967 77.58 443.462L77.0973 318.094C77.0044 293.954 90.0459 271.674 111.139 259.935L518.579 33.1976Z" fill="#F5DAA7"/>
<path d="M95.5 334.732V434.955C95.5 459.915 113.909 481.053 138.633 484.481L707.041 563.295C735.325 567.217 761.145 546.695 763.707 518.256L772.578 419.784C773.503 409.513 771.23 399.207 766.07 390.279L589.237 84.3022C575.53 60.5851 545.291 52.3127 521.42 65.7497L120.974 291.161C105.237 300.019 95.5 316.674 95.5 334.732Z" fill="#F0D29B"/>
<rect x="545.117" y="149.571" width="490.029" height="541.9" rx="67.0094" transform="rotate(60.8295 545.117 149.571)" fill="#FFF7E9"/>
</svg>
