<svg width="632" height="867" viewBox="0 0 632 867" fill="none" xmlns="http://www.w3.org/2000/svg">
<path d="M316 3.86328C343.786 3.86328 365.139 8.83257 386.882 13.8428C408.633 18.8549 430.762 23.9034 459.53 23.6572C482.461 23.461 511.773 20.2114 538.552 16.418C578.401 10.773 616.751 35.8024 622.771 74.999C625.976 95.8703 628.354 116.506 628.121 130.579C627.8 150.044 623.138 164.754 618.385 179.964C613.631 195.177 608.795 210.866 608.795 231.595C608.795 252.342 613.808 268.047 618.64 283.241C623.471 298.435 628.121 313.119 628.121 332.547C628.121 351.975 623.471 366.659 618.64 381.853C613.808 397.047 608.795 412.752 608.795 433.499C608.795 454.246 613.808 469.952 618.64 485.146C623.471 500.34 628.121 515.024 628.121 534.451C628.121 553.879 623.471 568.563 618.64 583.757C613.808 598.951 608.795 614.656 608.795 635.403C608.795 656.136 613.673 671.83 618.446 687.038C623.218 702.244 627.877 716.948 628.121 736.404C628.314 751.811 623.905 775.251 618.372 798.25C609.579 834.798 572.146 856.004 534.286 850.242C509.581 846.482 482.187 843.343 459.497 843.343C430.748 843.343 408.634 848.386 386.892 853.336C365.158 858.284 343.796 863.137 316 863.137C288.204 863.137 266.842 858.284 245.108 853.336C223.366 848.386 201.252 843.343 172.503 843.343C149.813 843.343 122.419 846.482 97.7139 850.242C59.8544 856.004 22.4211 834.798 13.6279 798.25C8.0947 775.251 3.68553 751.811 3.87891 736.404C4.12312 716.948 8.78161 702.244 13.5537 687.038C18.3265 671.83 23.2051 656.136 23.2051 635.403C23.205 614.656 18.1919 598.951 13.3604 583.757C8.52889 568.563 3.87891 553.879 3.87891 534.451C3.87896 515.024 8.52895 500.34 13.3604 485.146C18.192 469.952 23.2051 454.246 23.2051 433.499C23.205 412.752 18.192 397.047 13.3604 381.853C8.52888 366.659 3.87891 351.975 3.87891 332.547C3.87894 313.119 8.52888 298.435 13.3604 283.241C18.192 268.047 23.2051 252.342 23.2051 231.595C23.2051 210.866 18.3694 195.177 13.6152 179.964C8.86187 164.754 4.20039 150.044 3.87891 130.579C3.6465 116.506 6.02414 95.8703 9.22949 74.999C15.2492 35.8024 53.5987 10.773 93.4482 16.418C120.227 20.2114 149.539 23.461 172.47 23.6572C201.238 23.9034 223.367 18.8549 245.118 13.8428C266.861 8.83257 288.214 3.86328 316 3.86328Z" fill="#CCEBFF" stroke="#AAD9F6" stroke-width="7.72595" stroke-linecap="round"/>
</svg>
